<?xml version="1.0" encoding="utf-8"?>
<!-- Generator: Adobe Illustrator 18.0.0, SVG Export Plug-In . SVG Version: 6.00 Build 0)  -->
<!DOCTYPE svg PUBLIC "-//W3C//DTD SVG 1.1//EN" "http://www.w3.org/Graphics/SVG/1.1/DTD/svg11.dtd">
<svg version="1.1" id="Layer_1" xmlns="http://www.w3.org/2000/svg" xmlns:xlink="http://www.w3.org/1999/xlink" x="0px" y="0px"
	 viewBox="0 0 1800 544" enable-background="new 0 0 1800 544" xml:space="preserve">
<g>
	<path fill="#FFFFFF" d="M389.8,356.7H354l-42.2-124.3h35.8l24.2,75.1l24.2-75.1h33.5l24.2,75.1l24.2-75.1h36l-42.2,124.3h-36
		L412.8,289L389.8,356.7z"/>
	<path fill="#FFFFFF" d="M641,338.7c-14,13.2-30.5,19.9-49.3,19.9s-34.4-5.8-46.8-17.4s-18.5-27.2-18.5-46.8
		c0-19.6,6.2-35.2,18.8-46.7c12.6-11.5,27.4-17.3,44.5-17.3c17,0,31.6,5.2,43.6,15.5c11.9,10.3,17.9,24.5,17.9,42.5v18.5h-90.6
		c1.1,6.7,4.7,12.4,10.7,16.7c6,4.3,12.8,6.5,20.3,6.5c12.1,0,22.2-4.1,30-12.2L641,338.7z M607.8,265c-4.8-4-10.6-6-17.4-6
		s-13.1,2-18.8,6.2c-5.6,4.2-9,9.8-10,16.9h54.5C615.4,274.7,612.6,269.1,607.8,265z"/>
	<path fill="#FFFFFF" d="M783.8,338.7c-14,13.2-30.5,19.9-49.3,19.9c-18.8,0-34.4-5.8-46.8-17.4s-18.5-27.2-18.5-46.8
		c0-19.6,6.2-35.2,18.8-46.7c12.6-11.5,27.4-17.3,44.5-17.3c17,0,31.6,5.2,43.6,15.5c11.9,10.3,17.9,24.5,17.9,42.5v18.5h-90.6
		c1.1,6.7,4.7,12.4,10.7,16.7c6,4.3,12.8,6.5,20.3,6.5c12.1,0,22.2-4.1,30-12.2L783.8,338.7z M750.6,265c-4.8-4-10.6-6-17.4-6
		s-13.1,2-18.8,6.2c-5.6,4.2-9,9.8-10,16.9h54.5C758.2,274.7,755.3,269.1,750.6,265z"/>
	<path fill="#FFFFFF" d="M868.7,358.6c-14.8,0-27.8-6.2-39.4-18.7c-11.5-12.5-17.3-28-17.3-46.4c0-18.5,5.6-33.6,16.9-45.4
		c11.3-11.8,24.4-17.6,39.5-17.6c15.1,0,27.4,5.3,37,16v-61h34.7v171.4h-34.7v-16.4C895.7,352.5,883.4,358.6,868.7,358.6z
		 M846.8,294.8c0,10,3,18.2,9,24.6c6,6.4,13,9.6,21,9.6c8,0,14.8-3.2,20.4-9.6c5.6-6.4,8.4-14.6,8.4-24.7c0-10.1-2.8-18.5-8.4-25.2
		s-12.5-10.1-20.6-10.1s-15.1,3.4-21,10.2C849.8,276.4,846.8,284.8,846.8,294.8z"/>
</g>
<g>
	<path fill="#616262" d="M1066.3,318c0,12.2-4.6,22.1-13.6,29.4c-9,7.4-20.4,11-34.3,11c-9.2,0-18.8-1.7-28.9-4.9
		c-10-3.4-19.1-8.2-27-14.6l15.2-21.7c13,10,26.8,15,41.4,15c4.4,0,8-0.8,10.7-2.6c2.6-1.8,4-4.1,4-7.1c0-2.9-1.8-5.6-5.4-8
		c-3.6-2.5-8.9-4.8-15.7-7s-12.1-4-15.7-5.5c-3.6-1.6-7.7-3.7-12.4-6.7c-9.4-5.9-14-14.5-14-26c0-11.5,4.7-20.9,13.9-28.1
		s21.1-10.8,35.8-10.8c14.6,0,29.3,4.9,43.9,14.8l-13,23c-10.8-7.4-21.5-11-32.3-11c-10.7,0-16.1,2.9-16.1,8.8c0,3.2,1.7,5.8,5,7.7
		c3.4,1.8,9,4,16.9,6.5c7.8,2.5,13.4,4.3,16.8,5.6c3.4,1.3,7.3,3.4,11.9,6.1C1062,297,1066.3,305.8,1066.3,318z"/>
	<path fill="#616262" d="M1127.5,289.7v67h-34.7V185.3h34.7v61c10.4-10.7,22.2-16,35.3-16c13,0,24,4.7,32.9,13.8
		c8.9,9.2,13.4,21.6,13.4,37v75.5h-34.7v-67.9c0-19.1-7-28.7-21-28.7c-7,0-13,2.5-18.1,7.6C1130.2,272.7,1127.5,280,1127.5,289.7z"
		/>
	<path fill="#616262" d="M1364.8,294.5c0,18-6.2,33.2-18.7,45.5c-12.5,12.4-28.2,18.5-47,18.5s-34.6-6.1-47-18.5
		c-12.5-12.4-18.7-27.5-18.7-45.5s6.2-33.2,18.7-45.6s28.2-18.6,47-18.6s34.6,6.2,47,18.6C1358.5,261.4,1364.8,276.5,1364.8,294.5z
		 M1268.2,294.5c0,10.2,2.9,18.5,8.6,24.8c5.8,6.4,13.2,9.6,22.2,9.6s16.4-3.2,22.2-9.6c5.8-6.4,8.6-14.6,8.6-24.8
		c0-10.2-2.9-18.5-8.6-25c-5.8-6.5-13.2-9.7-22.2-9.7s-16.4,3.2-22.2,9.7C1271,276.2,1268.2,284.4,1268.2,294.5z"/>
	<path fill="#616262" d="M1462.7,230.3c14.5,0,27.4,6,38.6,18.1c11.3,12.1,16.9,27.2,16.9,45.6s-5.6,33.6-16.9,46
		s-24.6,18.5-39.7,18.5s-27.4-6.1-36.6-18.2v61.2h-34.7v-169h34.7v13.9C1435.7,235.7,1448.2,230.3,1462.7,230.3z M1424.5,294.6
		c0,10.1,2.8,18.4,8.4,24.7c5.6,6.4,12.5,9.6,20.4,9.6c8,0,15-3.2,21-9.6c6-6.4,9-14.6,9-24.6c0-10-2.9-18.4-8.8-25.2
		c-5.9-6.7-12.8-10.2-21-10.2s-15,3.4-20.6,10.1C1427.4,276.2,1424.5,284.6,1424.5,294.6z"/>
</g>
</svg>
